<?xml version="1.0" encoding="UTF-8" standalone="no"?>
<svg width="808px" height="600px" viewBox="0 0 808 600" version="1.1" xmlns="http://www.w3.org/2000/svg" xmlns:xlink="http://www.w3.org/1999/xlink" xmlns:sketch="http://www.bohemiancoding.com/sketch/ns">
    <!-- Generator: Sketch 3.0.1 (7597) - http://www.bohemiancoding.com/sketch -->
    <title>Logo</title>
    <description>Created with Sketch.</description>
    <defs></defs>
    <g id="Logo-vaguement-carré" stroke="none" stroke-width="1" fill="none" fill-rule="evenodd" sketch:type="MSPage">
        <g id="Logo" sketch:type="MSArtboardGroup">
            <g sketch:type="MSLayerGroup">
                <path d="M808,4.83615602 C808,1.81355851 806.157243,0 803.084851,0 L4.91684257,0 C1.84445111,0 0,1.81355851 0,4.83615602 L0,595.162151 C0,598.184748 1.84445111,600 4.91684257,600 L801.856911,600 C805.850681,600 808,597.863015 808,593.893845 L808,4.83615602" id="Fond-blanc" fill="#FFFFFF" sketch:type="MSShapeGroup"></path>
                <path d="M808,28.7172164 L808,4.83615602 C808,1.81355851 806.157243,0 803.084851,0 L4.91684257,0 C1.84445111,0 0,1.81355851 0,4.83615602 L0,595.162151 C0,598.184748 1.84445111,600 4.91684257,600 L801.856911,600 C805.850681,600 808,597.863015 808,593.893845 L808,564.587349 C808,560.618179 805.850681,558.481194 801.856911,558.481194 L749.323082,558.481194 L727.50978,547.18667 L803.391413,508.720942 C806.465498,507.19525 808,505.363064 808,501.700387 L808,469.340814 C808,464.455551 804.929302,462.62506 800.935532,464.762045 L692.178972,520.017159 L600.322258,468.119922 L600.134256,468.016629 L600.134256,441.053704 L803.084851,441.053704 C806.157243,441.053704 808,439.223212 808,436.171828 L808,406.272666 C808,403.221282 806.157243,401.39079 803.084851,401.39079 L743.178299,401.39079 L743.178299,374.238212 L803.699668,359.592584 C806.465498,358.982985 808,357.457293 808,354.405909 L808,324.506747 C808,321.150563 806.157243,319.320071 802.471728,320.236163 L736.418699,336.10099 C729.352537,324.811546 716.75641,319.015271 698.938572,319.015271 L637.187568,319.015271 C619.772833,319.015271 607.313896,324.59988 600.134256,335.293271 L600.134256,286.840271 L801.856911,286.840271 C805.850681,286.840271 808,284.703286 808,280.735809 L808,251.429313 C808,247.460143 805.850681,245.323158 801.856911,245.323158 L749.323082,245.323158 L727.50978,234.028634 L803.391413,195.562906 C806.465498,194.037214 808,192.205029 808,188.542352 L808,156.182778 C808,151.297516 804.929302,149.46533 800.935532,151.602315 L692.178972,206.85743 L600.322258,154.961886 L600.134256,154.858593 L600.134256,129.079307 L803.084851,129.079307 C806.157243,129.079307 808,127.264055 808,124.241458 L808,95.8256545 C808,92.5016439 806.157243,90.9894985 803.084851,90.9894985 L686.650699,90.9894985 L804.007924,34.1578919 C806.77206,32.9488529 808,31.4384008 808,28.7172164 M679.038083,558.525346 L600.208815,558.525346 L600.208815,512.903226 L679.038083,558.525346 M632.708601,368.038667 C632.708601,359.75925 636.955211,355.299539 644.839357,355.299539 L691.802472,355.299539 C699.686617,355.299539 703.931536,359.75925 703.931536,368.038667 L703.931536,399.884793 L632.708601,399.884793 L632.708601,368.038667 M679.038083,245.391705 L600.208815,245.391705 L600.208815,199.769585 L679.038083,245.391705 M600.208815,93.3179724 L600.208815,38.0184332 L714.303808,38.0184332 L600.208815,93.3179724" id="Carré-&amp;-lettres" fill="#163891" sketch:type="MSShapeGroup"></path>
                <path d="M287.337962,30.0691244 C254.276912,30.0691244 217.976343,35.1591234 186.170776,52.1494925 C185.787862,51.5500715 185.35073,50.9845161 184.857687,50.4562128 C182.289114,47.7046332 178.588743,46.3838749 174.385163,46.3838749 C167.685866,46.3838749 159.70567,49.7365689 152.980958,56.0050905 C142.742249,65.546722 139.040184,78.4579802 144.05195,85.9287305 C133.394747,98.4369881 124.162458,113.568136 116.907427,131.813226 C116.427937,131.759041 115.948448,131.733641 115.467264,131.733641 C106.187534,131.733641 96.8061456,141.586836 93.6242334,155.358281 C90.413518,169.260107 94.6306529,182.342387 103.131001,186.275876 C100.813186,203.449119 99.808461,222.324109 100.360806,242.50631 C100.06769,242.485991 99.7728805,242.475831 99.4797651,242.475831 C98.6122789,242.475831 97.7481813,242.563882 96.8891667,242.746756 C86.0642269,245.04623 80.3611831,261.349127 84.1496578,279.160737 C87.5298042,295.052168 97.3229098,306.774744 107.082129,307.485921 C109.833687,323.10304 113.459508,339.160412 118.037531,355.522575 C117.749498,355.629251 117.46316,355.744394 117.180211,355.87139 C105.880864,360.898738 103.373287,379.90411 111.577131,398.321914 C118.425528,413.691814 130.570334,423.795615 140.968308,423.795615 C141.403745,423.795615 141.835794,423.778682 142.264454,423.74143 C149.704165,440.945152 158.241788,458.274177 167.962038,475.589656 C167.391056,475.906299 166.833628,476.253422 166.293144,476.632716 C152.962321,485.960995 154.258467,510.798022 169.188718,532.106255 C180.266109,547.918101 195.738539,557.346283 208.430607,557.346283 C212.844282,557.346283 216.919094,556.206706 220.358542,553.800555 L220.54661,553.666786 C233.025195,569.341477 246.623719,584.82144 261.411647,600 L538.666667,600 C285.333595,463.57245 188.95622,244.699107 211.775173,170.56224 C225.399111,126.298213 259.410668,109.319697 294.838668,109.319697 C330.268362,109.319697 367.114499,126.284667 386.455035,149.911 C425.134414,197.161971 353.031403,276.095901 396.75135,289.372907 C399.577458,290.2314 402.467949,290.641174 405.399103,290.641174 C447.802573,290.641174 498.675893,204.90026 486.912306,151.765141 C474.338839,94.9589915 406.232703,42.3301632 336.533917,33.4099654 C321.86459,31.5321181 305.067211,30.0691244 287.337962,30.0691244" id="Tentacule" fill-opacity="0.32" fill="#000000" sketch:type="MSShapeGroup"></path>
            </g>
        </g>
    </g>
</svg>