<?xml version="1.0" encoding="UTF-8" standalone="no"?>
<svg width="808px" height="600px" viewBox="0 0 808 600" version="1.1" xmlns="http://www.w3.org/2000/svg" xmlns:xlink="http://www.w3.org/1999/xlink" xmlns:sketch="http://www.bohemiancoding.com/sketch/ns">
    <!-- Generator: Sketch 3.0.1 (7597) - http://www.bohemiancoding.com/sketch -->
    <title>Logo</title>
    <description>Created with Sketch.</description>
    <defs></defs>
    <g id="Logo-vaguement-carré" stroke="none" stroke-width="1" fill="none" fill-rule="evenodd" sketch:type="MSPage">
        <g id="Logo" sketch:type="MSArtboardGroup">
            <g sketch:type="MSLayerGroup">
                <path d="M808,4.83615602 C808,1.81355851 806.157243,0 803.084851,0 L4.91684257,0 C1.84445111,0 0,1.81355851 0,4.83615602 L0,595.162151 C0,598.184748 1.84445111,600 4.91684257,600 L801.856911,600 C805.850681,600 808,597.863015 808,593.893845 L808,4.83615602" id="Fond-blanc" fill="#FFFFFF" sketch:type="MSShapeGroup"></path>
                <path d="M808,28.7172164 L808,4.83615602 C808,1.81355851 806.157243,0 803.084851,0 L4.91684257,0 C1.84445111,0 0,1.81355851 0,4.83615602 L0,595.162151 C0,598.184748 1.84445111,600 4.91684257,600 L801.856911,600 C805.850681,600 808,597.863015 808,593.893845 L808,564.587349 C808,560.618179 805.850681,558.481194 801.856911,558.481194 L749.323082,558.481194 L727.50978,547.18667 L803.391413,508.720942 C806.465498,507.19525 808,505.363064 808,501.700387 L808,469.340814 C808,464.455551 804.929302,462.62506 800.935532,464.762045 L692.178972,520.017159 L600.322258,468.119922 L600.134256,468.016629 L600.134256,441.053704 L803.084851,441.053704 C806.157243,441.053704 808,439.223212 808,436.171828 L808,406.272666 C808,403.221282 806.157243,401.39079 803.084851,401.39079 L743.178299,401.39079 L743.178299,374.238212 L803.699668,359.592584 C806.465498,358.982985 808,357.457293 808,354.405909 L808,324.506747 C808,321.150563 806.157243,319.320071 802.471728,320.236163 L736.418699,336.10099 C729.352537,324.811546 716.75641,319.015271 698.938572,319.015271 L637.187568,319.015271 C619.772833,319.015271 607.313896,324.59988 600.134256,335.293271 L600.134256,286.840271 L801.856911,286.840271 C805.850681,286.840271 808,284.703286 808,280.735809 L808,251.429313 C808,247.460143 805.850681,245.323158 801.856911,245.323158 L749.323082,245.323158 L727.50978,234.028634 L803.391413,195.562906 C806.465498,194.037214 808,192.205029 808,188.542352 L808,156.182778 C808,151.297516 804.929302,149.46533 800.935532,151.602315 L692.178972,206.85743 L600.322258,154.961886 L600.134256,154.858593 L600.134256,129.079307 L803.084851,129.079307 C806.157243,129.079307 808,127.264055 808,124.241458 L808,95.8256545 C808,92.5016439 806.157243,90.9894985 803.084851,90.9894985 L686.650699,90.9894985 L804.007924,34.1578919 C806.77206,32.9488529 808,31.4384008 808,28.7172164 M679.038083,558.525346 L600.208815,558.525346 L600.208815,512.903226 L679.038083,558.525346 M632.708601,368.038667 C632.708601,359.75925 636.955211,355.299539 644.839357,355.299539 L691.802472,355.299539 C699.686617,355.299539 703.931536,359.75925 703.931536,368.038667 L703.931536,399.884793 L632.708601,399.884793 L632.708601,368.038667 M679.038083,245.391705 L600.208815,245.391705 L600.208815,199.769585 L679.038083,245.391705 M600.208815,93.3179724 L600.208815,38.0184332 L714.303808,38.0184332 L600.208815,93.3179724" id="Carré-&amp;-lettres" fill="#163891" sketch:type="MSShapeGroup"></path>
                <path d="M294.772875,93 C265.362374,93 233.070057,97.5279692 204.776411,112.642288 C204.435778,112.109055 204.046913,111.605947 203.608311,111.135978 C201.323356,108.688223 198.031574,107.513301 194.292147,107.513301 C188.332575,107.513301 181.233541,110.495796 175.251361,116.072157 C166.143194,124.560217 162.849905,136.045834 167.30828,142.691676 C157.827828,153.818791 149.614954,167.279181 143.161012,183.509677 C142.734467,183.461475 142.307922,183.43888 141.87987,183.43888 C133.624793,183.43888 125.279283,192.204101 122.448713,204.454924 C119.592519,216.821732 123.344005,228.459487 130.905758,231.958646 C128.843872,247.235647 127.950087,264.02649 128.441443,281.980204 C128.180693,281.962128 127.918436,281.95309 127.657686,281.95309 C126.885986,281.95309 126.117301,282.031419 125.353137,282.1941 C115.72347,284.23967 110.650147,298.742427 114.020305,314.587307 C117.027221,328.72403 125.738987,339.152218 134.420609,339.784868 C136.868344,353.677569 140.093807,367.961911 144.166332,382.517389 C143.910103,382.612287 143.655382,382.714716 143.403675,382.827689 C133.351985,387.299925 131.121291,404.206754 138.419279,420.590893 C144.511487,434.263673 155.315283,443.251827 164.565128,443.251827 C164.952485,443.251827 165.336828,443.236764 165.718156,443.203625 C172.336386,458.50774 179.931297,473.923321 188.578253,489.326852 C188.070318,489.608532 187.57444,489.917325 187.093635,490.254739 C175.234781,498.553003 176.387809,520.647565 189.669485,539.602976 C199.523728,553.668903 213.287716,562.05604 224.578346,562.05604 C228.504669,562.05604 232.129548,561.042293 235.189217,558.901825 L235.356519,558.782827 C246.457238,572.726743 258.554234,586.497433 271.709303,600 L518.350257,600 C292.989826,478.636566 207.25429,283.930876 227.55361,217.980085 C239.673214,178.603623 269.929269,163.499848 301.445364,163.499848 C332.962967,163.499848 365.74061,178.591573 382.945595,199.609123 C417.354057,241.642716 353.212548,311.860885 392.105008,323.671865 C394.61906,324.435564 397.190388,324.800092 399.797889,324.800092 C437.519234,324.800092 482.775202,248.526555 472.310531,201.258533 C461.125407,150.724829 400.539444,103.907194 338.536689,95.9719505 C325.487126,94.3014522 310.544487,93 294.772875,93" id="Tentacule" fill-opacity="0.32" fill="#000000" sketch:type="MSShapeGroup"></path>
            </g>
        </g>
    </g>
</svg>